<svg width="20" height="20" viewBox="0 0 20 20" fill="none" xmlns="http://www.w3.org/2000/svg">
<path d="M6.59336 17.8432C6.45487 17.7448 6.30926 17.6164 6.20772 17.48L6.19883 17.4679C5.65102 17.6429 5.09576 17.6469 4.5293 17.6459C3.74703 17.6445 3.41518 17.5702 2.83389 16.9576C2.4151 16.5162 2.34291 16.4327 2.44758 15.8576L2.59551 15.1193C3.10778 12.6999 4.31223 10.3038 5.97451 8.48356L6.40905 8.02848C6.47291 7.96211 6.55731 7.88998 6.60651 7.81291C7.17772 6.91809 7.21637 5.83672 6.79473 4.86955L6.56262 4.39904C6.19375 3.56865 6.34748 2.67178 6.92469 1.98252C7.05198 1.83051 7.1818 1.66209 7.40584 1.70413C8.16606 1.84679 8.69916 2.45043 9.22852 2.96033L9.99596 3.68141C10.0492 3.64385 10.0928 3.59436 10.14 3.54971L10.8897 2.84008C11.3466 2.39207 11.9633 1.78395 12.6227 1.69218C12.9755 1.65963 13.3623 2.35918 13.4636 2.6285L13.5159 2.76354C13.6603 3.18918 13.6635 3.70699 13.5281 4.1358C13.4704 4.31826 13.3872 4.48914 13.3218 4.66783L12.8662 6.00274C12.7981 6.22342 12.8349 6.7619 12.8956 6.98455C12.9974 7.35875 13.1919 7.60317 13.4554 7.87703L13.9074 8.34873C14.9529 9.46361 15.9926 11.0445 16.5675 12.4852L16.9207 13.4107L17.2607 14.538C17.292 14.7067 17.3448 14.8758 17.3829 15.0438L17.5203 15.6883C17.5398 15.789 17.5611 15.8928 17.5779 15.9938L17.5848 16.0291C17.6711 16.3972 17.4894 16.6161 17.2578 16.8656C16.8249 17.3317 16.4912 17.5697 15.8467 17.5736L15.412 17.5772C15.1171 17.5875 14.8392 17.6296 14.5403 17.6047C14.468 17.5987 13.8274 17.469 13.8206 17.4722C13.8065 17.4786 13.7676 17.5328 13.7549 17.5462L13.5644 17.7329C12.7727 18.443 11.3156 18.47 10.4287 17.9467C10.279 17.8584 10.1641 17.7451 10.0247 17.6466C9.99613 17.6265 9.99256 17.6486 9.96936 17.6694L9.8485 17.7748C8.99987 18.4646 7.4625 18.473 6.59336 17.8432ZM7.40784 2.27154C7.19547 2.49746 7.03916 2.77254 6.9609 3.07242C6.86905 3.42442 6.93252 4.04221 7.16127 4.34145C7.98955 4.29092 8.67344 4.81838 8.88696 5.60094C8.89809 5.64174 8.89619 5.71479 8.92141 5.74567L11.091 5.73697C11.2206 4.96063 11.8989 4.30756 12.7083 4.33906C12.7626 4.34119 12.842 4.37928 12.8659 4.32102L12.978 4.03371C13.1991 3.40008 13.0219 2.75899 12.58 2.27721C11.9977 2.56443 11.8165 2.72027 11.369 3.15402L10.3489 4.15518C10.0039 4.49485 9.95424 4.45844 9.60846 4.11572L8.64284 3.1674C8.34313 2.87305 8.06231 2.58766 7.68256 2.39574L7.40784 2.27154ZM7.39155 4.89363L7.54362 5.34621C7.58547 5.51848 7.5926 5.65576 7.62342 5.8208L7.93436 5.81389C8.06225 5.80488 8.19713 5.78721 8.32526 5.79606L8.35989 5.786C8.2795 5.3702 7.95194 5.02002 7.54006 4.92037L7.39155 4.89363ZM12.5846 4.89449L12.4659 4.92055C12.1427 4.98985 11.8437 5.25063 11.7164 5.55045L11.6583 5.70787C11.6784 5.72172 11.7203 5.71473 11.7457 5.71412L12.3595 5.71229L12.6721 4.89123L12.5846 4.89449ZM11.7737 6.2702L8.94157 6.31168C8.80369 6.31262 8.65692 6.30756 8.52057 6.32945L8.38727 6.34547C8.30922 6.35813 8.22321 6.35592 8.14412 6.35762L7.64127 6.36422C7.5977 6.68389 7.4928 7.37422 7.31676 7.64949L8.11785 7.6432L12.5613 7.6277C12.3398 7.28639 12.2749 6.66317 12.2756 6.26924L11.7737 6.2702ZM8.82465 8.19528L7.69621 11.6161L6.83721 15.2342L6.56328 17.0417C6.73619 17.3101 7.22071 17.6022 7.52369 17.6634L7.54121 17.6663C8.26737 17.8639 9.06987 17.7166 9.62844 17.2033C9.67438 17.1611 9.72356 17.1673 9.72604 17.0889L9.72612 8.19238L8.82465 8.19528ZM10.4612 8.19563C10.4008 8.19893 10.3339 8.20654 10.2741 8.19969L10.2708 16.9969C10.2706 17.1774 10.2731 17.1142 10.4036 17.2285C10.7651 17.5451 11.2257 17.7371 11.7102 17.7431L12.0801 17.7374C12.3928 17.708 12.6906 17.6204 12.9671 17.4712C13.1576 17.3516 13.2864 17.2057 13.4435 17.0489L13.1393 15.1498C12.8701 13.7703 12.5416 12.4075 12.1339 11.0618L11.2075 8.31115C11.195 8.2691 11.1915 8.23359 11.1688 8.19504L10.4612 8.19563ZM11.7572 8.19742L12.66 10.9096L13.1788 12.7689L13.4504 13.9269C13.4662 13.9808 13.4712 14.0371 13.4839 14.0917L13.6176 14.6901L13.9258 16.5135C13.9458 16.6452 13.9626 16.7767 13.9783 16.9088C14.164 16.953 14.3544 17.0126 14.544 17.0344C14.8829 17.0734 15.2075 17.0252 15.5455 17.014C16.0708 16.9966 16.2485 17.0522 16.6732 16.6694L17.0539 16.2414C17.018 15.9328 16.9465 15.625 16.8823 15.3211C16.4167 13.1154 15.411 11.0057 13.9736 9.26717L13.1807 8.38908C13.1184 8.32598 13.0587 8.25551 12.991 8.19862L11.7572 8.19742ZM7.98436 8.19633C7.87807 8.20326 7.77692 8.21895 7.6719 8.22526L7.06971 8.23125C7.02854 8.23141 6.98926 8.21762 6.95807 8.25143L6.85067 8.37922C6.44744 8.81406 6.0375 9.23645 5.67426 9.7069L5.20235 10.3784C4.40778 11.5651 3.8235 12.8258 3.40338 14.1905L2.95635 16.1425C2.92577 16.3183 3.34463 16.7132 3.47289 16.802C3.837 17.0909 4.07354 17.0768 4.50481 17.0784C5.07895 17.0805 5.46352 17.0843 6.02684 16.9123C6.04813 16.8021 6.05455 16.6908 6.0701 16.5798L6.23293 15.4735L7.02748 11.9732L7.57973 10.1484L8.22651 8.2011L7.98436 8.19633Z" fill="#292526"/>
</svg>
