<svg width="18" height="19" viewBox="0 0 18 19" fill="none" xmlns="http://www.w3.org/2000/svg">
<path d="M15.9627 6.70682L11.4996 6.05819L9.50449 2.01346C9.45 1.90272 9.36035 1.81307 9.24961 1.75858C8.97188 1.62147 8.63438 1.73572 8.49551 2.01346L6.50039 6.05819L2.03731 6.70682C1.91426 6.7244 1.80176 6.7824 1.71563 6.87029C1.6115 6.97732 1.55412 7.12131 1.5561 7.27062C1.55807 7.41993 1.61925 7.56235 1.72617 7.66658L4.95528 10.8148L4.19239 15.2603C4.1745 15.3637 4.18594 15.4701 4.22542 15.5673C4.2649 15.6646 4.33083 15.7488 4.41575 15.8105C4.50066 15.8722 4.60116 15.9088 4.70584 15.9163C4.81052 15.9237 4.9152 15.9017 5.00801 15.8527L9 13.7539L12.992 15.8527C13.101 15.9107 13.2275 15.9301 13.3488 15.909C13.6547 15.8562 13.8604 15.5662 13.8076 15.2603L13.0447 10.8148L16.2738 7.66658C16.3617 7.58045 16.4197 7.46795 16.4373 7.3449C16.4848 7.03729 16.2703 6.75252 15.9627 6.70682Z" fill="#FFD33C"/>
</svg>
