<svg width="24" height="24" viewBox="0 0 24 24" fill="none" xmlns="http://www.w3.org/2000/svg">
<rect width="24" height="24" rx="12" fill="#292526"/>
<path d="M14.96 6.06668C13.7533 6.06668 12.6733 6.65335 12 7.55335C11.3267 6.65335 10.2467 6.06668 9.04001 6.06668C6.99334 6.06668 5.33334 7.73335 5.33334 9.79335C5.33334 10.5867 5.46001 11.32 5.68001 12C6.73334 15.3333 9.98001 17.3267 11.5867 17.8733C11.8133 17.9533 12.1867 17.9533 12.4133 17.8733C14.02 17.3267 17.2667 15.3333 18.32 12C18.54 11.32 18.6667 10.5867 18.6667 9.79335C18.6667 7.73335 17.0067 6.06668 14.96 6.06668Z" fill="white"/>
</svg>
