<svg width="24" height="24" viewBox="0 0 24 24" fill="none" xmlns="http://www.w3.org/2000/svg">
<rect width="24" height="24" rx="12" fill="#292526"/>
<path d="M12 18.4333C11.7933 18.4333 11.5933 18.4067 11.4267 18.3467C8.88001 17.4733 4.83334 14.3733 4.83334 9.79335C4.83334 7.46001 6.72001 5.56668 9.04001 5.56668C10.1667 5.56668 11.22 6.00668 12 6.79335C12.78 6.00668 13.8333 5.56668 14.96 5.56668C17.28 5.56668 19.1667 7.46668 19.1667 9.79335C19.1667 14.38 15.12 17.4733 12.5733 18.3467C12.4067 18.4067 12.2067 18.4333 12 18.4333ZM9.04001 6.56668C7.27334 6.56668 5.83334 8.01335 5.83334 9.79335C5.83334 14.3467 10.2133 16.88 11.7533 17.4067C11.8733 17.4467 12.1333 17.4467 12.2533 17.4067C13.7867 16.88 18.1733 14.3533 18.1733 9.79335C18.1733 8.01335 16.7333 6.56668 14.9667 6.56668C13.9533 6.56668 13.0133 7.04001 12.4067 7.86001C12.22 8.11335 11.7933 8.11335 11.6067 7.86001C10.9867 7.03335 10.0533 6.56668 9.04001 6.56668Z" fill="#FDFDFD"/>
</svg>
